<?xml version="1.0" encoding="UTF-8" standalone="yes"?>
<!DOCTYPE svg PUBLIC "-//W3C//DTD SVG 1.1//EN" "http://www.w3.org/Graphics/SVG/1.1/DTD/svg11.dtd">

<svg width="2370" height="1104" viewBox="0 0 2370 1104" xmlns="http://www.w3.org/2000/svg" xmlns:xlink="http://www.w3.org/1999/xlink" version="1.1" baseProfile="full">
    <defs>
        <linearGradient id="105553234348544105553160593280" x1="57.697311%" x2="142.302689%" y1="23.345125%" y2="76.654877%">
            <stop offset="0%" style="stop-color:#680028;stop-opacity:1.000000"></stop>
            <stop offset="100%" style="stop-color:#ffa166;stop-opacity:1.000000"></stop>
        </linearGradient>
        <linearGradient id="105553170090416105553160592160" x1="92.580643%" x2="92.580643%" y1="7.419355%" y2="92.580643%">
            <stop offset="0%" style="stop-color:#150008;stop-opacity:1.000000"></stop>
            <stop offset="100%" style="stop-color:#910037;stop-opacity:1.000000"></stop>
        </linearGradient>
    </defs>
    <g transform="scale(1,-1) translate(0,-1104)">
        <path d="M 1.000000 1.000000 L 2371.000000 1.000000 L 2371.000000 1105.000000 L 1.000000 1105.000000 Z" transform="scale(1.000000,1.000000) translate(-1.000000,-1.000000)" fill="#fffefe" opacity="1.000000"></path>
        <path d="M 262.300003 132.212891 C 262.300003 204.175595 203.962705 262.512894 132.000000 262.512894 C 60.037295 262.512894 1.699997 204.175595 1.699997 132.212891 C 1.699997 60.250186 60.037295 1.912888 132.000000 1.912888 C 203.962705 1.912888 262.300003 60.250186 262.300003 132.212891 Z" transform="scale(1.000000,1.000000) translate(1053.000000,535.000000)" fill="url(#105553234348544105553160593280)" opacity="1.000000"></path>
        <path d="M 162.248900 3.579300 L 163.336100 3.634300 L 169.953300 4.137500 L 171.033800 4.247200 L 177.554800 5.075800 L 178.624800 5.239200 L 185.041400 6.385100 L 186.097300 6.601100 L 192.401300 8.056000 L 193.439800 8.323100 L 199.623000 10.079000 L 200.641400 10.395600 L 206.695700 12.444200 L 207.691400 12.808700 L 213.608600 15.141800 L 214.579600 15.552400 L 220.351400 18.161800 L 221.295900 18.616800 L 226.914200 21.494300 L 227.830600 21.992100 L 233.287200 25.129600 L 234.174300 25.668500 L 239.460900 29.057700 L 240.317500 29.636400 L 245.426100 33.269200 L 246.251200 33.886200 L 251.173600 37.754400 L 251.966300 38.408600 L 256.694200 42.504000 L 257.453600 43.194200 L 261.978800 47.508600 L 262.704200 48.233900 L 267.018600 52.759200 L 267.708800 53.518600 L 271.804200 58.246500 L 272.458400 59.039200 L 276.326600 63.961600 L 276.943600 64.786700 L 280.576400 69.895300 L 281.155100 70.751900 L 284.544300 76.038500 L 285.083200 76.925600 L 288.220700 82.382200 L 288.718500 83.298600 L 291.596000 88.916900 L 292.051000 89.861400 L 294.660400 95.633200 L 295.071000 96.604200 L 297.404100 102.521400 L 297.768600 103.517100 L 299.817100 109.571400 L 300.133800 110.589800 L 301.889700 116.773000 L 302.156800 117.811500 L 303.611700 124.115500 L 303.827700 125.171400 L 304.973600 131.588000 L 305.137000 132.658000 L 305.965600 139.178900 L 306.075300 140.259500 L 306.578500 146.876700 L 306.633500 147.963900 L 306.803100 154.669100 L 306.803100 155.756600 L 306.633500 162.461800 L 306.578500 163.549000 L 306.075300 170.166200 L 305.965600 171.246700 L 305.137000 177.767700 L 304.973600 178.837700 L 303.827700 185.254300 L 303.611700 186.310100 L 302.156800 192.614200 L 301.889700 193.652700 L 300.133800 199.835900 L 299.817100 200.854300 L 297.768600 206.908600 L 297.404100 207.904300 L 295.071000 213.821500 L 294.660400 214.792500 L 292.051000 220.564300 L 291.596000 221.508800 L 288.718500 227.127100 L 288.220700 228.043500 L 285.083200 233.500100 L 284.544300 234.387100 L 281.155100 239.673800 L 280.576400 240.530400 L 276.943600 245.639000 L 276.326600 246.464100 L 272.458400 251.386400 L 271.804200 252.179200 L 267.708800 256.907000 L 267.018600 257.666500 L 262.704200 262.191700 L 261.978800 262.917100 L 257.453600 267.231500 L 256.694200 267.921700 L 251.966300 272.017100 L 251.173600 272.671300 L 246.251200 276.539500 L 245.426100 277.156500 L 240.317500 280.789300 L 239.460900 281.368000 L 234.174300 284.757200 L 233.287200 285.296100 L 227.830600 288.433600 L 226.914200 288.931400 L 221.295900 291.808900 L 220.351400 292.263900 L 214.579600 294.873300 L 213.608600 295.283900 L 207.691400 297.617000 L 206.695700 297.981500 L 200.641400 300.030000 L 199.623000 300.346700 L 193.439800 302.102500 L 192.401300 302.369700 L 186.097300 303.824600 L 185.041400 304.040600 L 178.624800 305.186500 L 177.554800 305.349900 L 171.033800 306.178500 L 169.953300 306.288200 L 163.336100 306.791400 L 162.248900 306.846400 L 155.543700 307.016000 L 154.456200 307.016000 L 147.751000 306.846400 L 146.663800 306.791400 L 140.046600 306.288200 L 138.966100 306.178500 L 132.445100 305.349900 L 131.375100 305.186500 L 124.958500 304.040600 L 123.902600 303.824600 L 117.598600 302.369700 L 116.560100 302.102500 L 110.376900 300.346700 L 109.358500 300.030000 L 103.304200 297.981500 L 102.308500 297.617000 L 96.391300 295.283900 L 95.420300 294.873300 L 89.648500 292.263900 L 88.704000 291.808900 L 83.085700 288.931400 L 82.169300 288.433600 L 76.712700 285.296100 L 75.825600 284.757200 L 70.539000 281.368000 L 69.682400 280.789300 L 64.573800 277.156500 L 63.748700 276.539500 L 58.826300 272.671300 L 58.033600 272.017100 L 53.305700 267.921700 L 52.546300 267.231500 L 48.021100 262.917100 L 47.295700 262.191700 L 42.981300 257.666500 L 42.291100 256.907000 L 38.195700 252.179200 L 37.541500 251.386400 L 33.673300 246.464100 L 33.056300 245.639000 L 29.423500 240.530400 L 28.844800 239.673800 L 25.455600 234.387100 L 24.916700 233.500100 L 21.779200 228.043500 L 21.281400 227.127100 L 18.403900 221.508800 L 17.948900 220.564300 L 15.339500 214.792500 L 14.928900 213.821500 L 12.595800 207.904300 L 12.231300 206.908600 L 10.182800 200.854300 L 9.866100 199.835900 L 8.110200 193.652700 L 7.843100 192.614200 L 6.388200 186.310100 L 6.172200 185.254300 L 5.026300 178.837700 L 4.862900 177.767700 L 4.034300 171.246700 L 3.924600 170.166200 L 3.421400 163.549000 L 3.366400 162.461800 L 3.196800 155.756600 L 3.196800 154.669100 L 3.366400 147.963900 L 3.421400 146.876700 L 3.924600 140.259500 L 4.034300 139.178900 L 4.862900 132.658000 L 5.026300 131.588000 L 6.172200 125.171400 L 6.388200 124.115500 L 7.843100 117.811500 L 8.110200 116.773000 L 9.866100 110.589800 L 10.182800 109.571400 L 12.231300 103.517100 L 12.595800 102.521400 L 14.928900 96.604200 L 15.339500 95.633200 L 17.948900 89.861400 L 18.403900 88.916900 L 21.281400 83.298600 L 21.779200 82.382200 L 24.916700 76.925600 L 25.455600 76.038500 L 28.844800 70.751900 L 29.423500 69.895300 L 33.056300 64.786700 L 33.673300 63.961600 L 37.541500 59.039200 L 38.195700 58.246500 L 42.291100 53.518600 L 42.981300 52.759200 L 47.295700 48.233900 L 48.021100 47.508600 L 52.546300 43.194200 L 53.305700 42.504000 L 58.033600 38.408600 L 58.826300 37.754400 L 63.748700 33.886200 L 64.573800 33.269200 L 69.682400 29.636400 L 70.539000 29.057700 L 75.825600 25.668500 L 76.712700 25.129600 L 82.169300 21.992100 L 83.085700 21.494300 L 88.704000 18.616800 L 89.648500 18.161800 L 95.420300 15.552400 L 96.391300 15.141800 L 102.308500 12.808700 L 103.304200 12.444200 L 109.358500 10.395600 L 110.376900 10.079000 L 116.560100 8.323100 L 117.598600 8.056000 L 123.902600 6.601100 L 124.958500 6.385100 L 131.375100 5.239200 L 132.445100 5.075800 L 138.966100 4.247200 L 140.046600 4.137500 L 146.663800 3.634300 L 147.751000 3.579300 L 154.456200 3.409700 L 155.543700 3.409700 Z M 154.905000 21.157100 L 148.199800 21.326700 L 148.009900 21.336300 L 141.392700 21.839500 L 141.203900 21.858600 L 134.683000 22.687300 L 134.496100 22.715800 L 128.079500 23.861700 L 127.895100 23.899400 L 121.591100 25.354400 L 121.409700 25.401000 L 115.226500 27.156900 L 115.048600 27.212200 L 108.994300 29.260700 L 108.820400 29.324400 L 102.903300 31.657400 L 102.733700 31.729100 L 96.961900 34.338500 L 96.796900 34.418000 L 91.178600 37.295500 L 91.018600 37.382500 L 85.562000 40.519900 L 85.407100 40.614000 L 80.120400 44.003300 L 79.970800 44.104300 L 74.862200 47.737100 L 74.718100 47.844900 L 69.795700 51.713100 L 69.657300 51.827400 L 64.929400 55.922700 L 64.796700 56.043300 L 60.271500 60.357700 L 60.144800 60.484400 L 55.830400 65.009600 L 55.709900 65.142300 L 51.614500 69.870200 L 51.500200 70.008600 L 47.632000 74.930900 L 47.524200 75.075100 L 43.891400 80.183700 L 43.790400 80.333300 L 40.401200 85.619900 L 40.307000 85.774900 L 37.169600 91.231400 L 37.082600 91.391500 L 34.205100 97.009800 L 34.125600 97.174800 L 31.516300 102.946600 L 31.444500 103.116200 L 29.111500 109.033300 L 29.047800 109.207200 L 26.999300 115.261500 L 26.944000 115.439300 L 25.188100 121.622600 L 25.141500 121.804000 L 23.686500 128.108000 L 23.648800 128.292400 L 22.502900 134.709000 L 22.474400 134.895900 L 21.645700 141.416800 L 21.626600 141.605600 L 21.123400 148.222800 L 21.113800 148.412700 L 20.944300 155.117900 L 20.944300 155.307800 L 21.113800 162.013000 L 21.123400 162.202900 L 21.626600 168.820100 L 21.645700 169.008800 L 22.474400 175.529800 L 22.502900 175.716700 L 23.648800 182.133300 L 23.686500 182.317700 L 25.141500 188.621700 L 25.188100 188.803100 L 26.944000 194.986300 L 26.999300 195.164200 L 29.047800 201.218500 L 29.111500 201.392400 L 31.444500 207.309500 L 31.516300 207.479100 L 34.125600 213.250900 L 34.205100 213.415900 L 37.082600 219.034200 L 37.169600 219.194200 L 40.307000 224.650800 L 40.401200 224.805700 L 43.790400 230.092400 L 43.891400 230.242000 L 47.524200 235.350600 L 47.632000 235.494700 L 51.500200 240.417100 L 51.614500 240.555500 L 55.709900 245.283400 L 55.830400 245.416000 L 60.144800 249.941300 L 60.271500 250.068000 L 64.796700 254.382400 L 64.929400 254.502900 L 69.657300 258.598300 L 69.795700 258.712600 L 74.718100 262.580800 L 74.862200 262.688500 L 79.970800 266.321300 L 80.120400 266.422400 L 85.407100 269.811600 L 85.562000 269.905800 L 91.018600 273.043200 L 91.178600 273.130200 L 96.796900 276.007700 L 96.961900 276.087200 L 102.733700 278.696500 L 102.903300 278.768300 L 108.820400 281.101300 L 108.994300 281.165000 L 115.048600 283.213500 L 115.226500 283.268800 L 121.409700 285.024700 L 121.591100 285.071300 L 127.895100 286.526300 L 128.079500 286.564000 L 134.496100 287.709900 L 134.683000 287.738400 L 141.203900 288.567000 L 141.392700 288.586200 L 148.009900 289.089400 L 148.199800 289.099000 L 154.905000 289.268500 L 155.094900 289.268500 L 161.800100 289.099000 L 161.990000 289.089400 L 168.607200 288.586200 L 168.796000 288.567000 L 175.316900 287.738400 L 175.503800 287.709900 L 181.920400 286.564000 L 182.104800 286.526300 L 188.408800 285.071300 L 188.590200 285.024700 L 194.773400 283.268800 L 194.951300 283.213500 L 201.005600 281.165000 L 201.179500 281.101300 L 207.096600 278.768300 L 207.266200 278.696500 L 213.038000 276.087200 L 213.203000 276.007700 L 218.821300 273.130200 L 218.981300 273.043200 L 224.437900 269.905800 L 224.592800 269.811600 L 229.879500 266.422400 L 230.029100 266.321300 L 235.137700 262.688500 L 235.281800 262.580800 L 240.204200 258.712600 L 240.342600 258.598300 L 245.070500 254.502900 L 245.203200 254.382400 L 249.728400 250.068000 L 249.855100 249.941300 L 254.169500 245.416000 L 254.290000 245.283400 L 258.385400 240.555500 L 258.499700 240.417100 L 262.367900 235.494700 L 262.475700 235.350600 L 266.108500 230.242000 L 266.209500 230.092400 L 269.598700 224.805700 L 269.692900 224.650800 L 272.830300 219.194200 L 272.917300 219.034200 L 275.794800 213.415900 L 275.874300 213.250900 L 278.483600 207.479100 L 278.555400 207.309500 L 280.888400 201.392400 L 280.952100 201.218500 L 283.000600 195.164200 L 283.055900 194.986300 L 284.811800 188.803100 L 284.858400 188.621700 L 286.313400 182.317700 L 286.351100 182.133300 L 287.497000 175.716700 L 287.525500 175.529800 L 288.354200 169.008800 L 288.373300 168.820100 L 288.876500 162.202900 L 288.886100 162.013000 L 289.055600 155.307800 L 289.055600 155.117900 L 288.886100 148.412700 L 288.876500 148.222800 L 288.373300 141.605600 L 288.354200 141.416800 L 287.525500 134.895900 L 287.497000 134.709000 L 286.351100 128.292400 L 286.313400 128.108000 L 284.858400 121.804000 L 284.811800 121.622600 L 283.055900 115.439300 L 283.000600 115.261500 L 280.952100 109.207200 L 280.888400 109.033300 L 278.555400 103.116200 L 278.483600 102.946600 L 275.874300 97.174800 L 275.794800 97.009800 L 272.917300 91.391500 L 272.830300 91.231400 L 269.692900 85.774900 L 269.598700 85.619900 L 266.209500 80.333300 L 266.108500 80.183700 L 262.475700 75.075100 L 262.367900 74.930900 L 258.499700 70.008600 L 258.385400 69.870200 L 254.290000 65.142300 L 254.169500 65.009600 L 249.855100 60.484400 L 249.728400 60.357700 L 245.203200 56.043300 L 245.070500 55.922700 L 240.342600 51.827400 L 240.204200 51.713100 L 235.281800 47.844900 L 235.137700 47.737100 L 230.029100 44.104300 L 229.879500 44.003300 L 224.592800 40.614000 L 224.437900 40.519900 L 218.981300 37.382500 L 218.821300 37.295500 L 213.203000 34.418000 L 213.038000 34.338500 L 207.266200 31.729100 L 207.096600 31.657400 L 201.179500 29.324400 L 201.005600 29.260700 L 194.951300 27.212200 L 194.773400 27.156900 L 188.590200 25.401000 L 188.408800 25.354400 L 182.104800 23.899400 L 181.920400 23.861700 L 175.503800 22.715800 L 175.316900 22.687300 L 168.796000 21.858600 L 168.607200 21.839500 L 161.990000 21.336300 L 161.800100 21.326700 L 155.094900 21.157100 Z" transform="scale(1.000000,1.000000) translate(1030.000000,512.000000)" fill="url(#105553170090416105553160592160)" opacity="1.000000"></path>
        <path d="M 2.695312 122.474219 L 2.695312 132.239844 Q 14.609375 141.028906 31.406250 141.028906 Q 49.277344 141.028906 60.654297 131.360938 Q 72.031250 121.692969 72.031250 106.653906 Q 72.031250 95.911719 65.683594 87.513281 Q 59.335938 79.114844 47.226562 75.403906 L 47.226562 75.013281 Q 73.691406 66.126563 73.691406 40.247656 Q 73.691406 22.181250 61.630859 11.634375 Q 49.570312 1.087500 32.871094 1.087500 Q 15.878906 1.087500 1.425781 7.825781 L 1.425781 17.200781 Q 15.488281 10.657813 31.699219 10.657813 Q 45.859375 10.657813 54.648438 18.665625 Q 63.437500 26.673438 63.437500 39.661719 Q 63.437500 53.626563 54.111328 61.878516 Q 44.785156 70.130469 28.281250 69.837500 L 28.281250 79.407813 Q 43.320312 79.407813 52.597656 87.171484 Q 61.875000 94.935156 61.875000 105.872656 Q 61.875000 116.712500 52.939453 124.085547 Q 44.003906 131.458594 30.625000 131.458594 Q 15.976562 131.458594 2.695312 122.474219 Z M 412.812500 129.603125 L 412.812500 118.079688 Q 388.007812 131.263281 364.179688 131.263281 Q 338.789062 131.263281 321.699219 113.978125 Q 304.609375 96.692969 304.609375 70.814063 Q 304.609375 44.642188 321.796875 27.747656 Q 338.984375 10.853125 365.644531 10.853125 Q 387.910156 10.853125 414.179688 24.817969 L 414.179688 13.880469 Q 389.960938 1.087500 365.839844 1.087500 Q 334.687500 1.087500 313.935547 21.058203 Q 293.183594 41.028906 293.183594 70.814063 Q 293.183594 100.794531 314.375000 120.911719 Q 335.566406 141.028906 364.863281 141.028906 Q 387.910156 141.028906 412.812500 129.603125 Z M 570.996094 141.028906 Q 601.269531 141.028906 622.314453 120.667578 Q 643.359375 100.306250 643.359375 71.009375 Q 643.359375 41.810156 622.314453 21.448828 Q 601.269531 1.087500 570.996094 1.087500 Q 540.820312 1.087500 519.873047 21.448828 Q 498.925781 41.810156 498.925781 71.009375 Q 498.925781 100.306250 519.873047 120.667578 Q 540.820312 141.028906 570.996094 141.028906 Z M 571.386719 10.853125 Q 596.875000 10.853125 614.404297 28.284766 Q 631.933594 45.716406 631.933594 71.009375 Q 631.933594 96.400000 614.404297 113.831641 Q 596.875000 131.263281 571.386719 131.263281 Q 545.800781 131.263281 528.076172 113.831641 Q 510.351562 96.400000 510.351562 71.009375 Q 510.351562 45.716406 528.076172 28.284766 Q 545.800781 10.853125 571.386719 10.853125 Z M 801.445312 75.892188 L 853.398438 139.271094 L 864.042969 139.271094 L 864.042969 2.845313 L 853.398438 2.845313 L 853.398438 123.841406 L 801.445312 60.071875 L 749.394531 123.841406 L 749.394531 2.845313 L 738.847656 2.845313 L 738.847656 139.271094 L 749.394531 139.271094 Z M 1027.597656 75.892188 L 1079.550781 139.271094 L 1090.195312 139.271094 L 1090.195312 2.845313 L 1079.550781 2.845313 L 1079.550781 123.841406 L 1027.597656 60.071875 L 975.546875 123.841406 L 975.546875 2.845313 L 965.000000 2.845313 L 965.000000 139.271094 L 975.546875 139.271094 Z M 1266.152344 139.271094 L 1266.152344 130.482031 L 1202.285156 130.482031 L 1202.285156 75.892188 L 1264.492188 75.892188 L 1264.492188 67.005469 L 1202.285156 67.005469 L 1202.285156 11.634375 L 1267.714844 11.634375 L 1267.714844 2.845313 L 1191.738281 2.845313 L 1191.738281 139.271094 Z M 1359.589844 139.271094 L 1394.550781 139.271094 Q 1416.523438 139.271094 1428.144531 129.749609 Q 1439.765625 120.228125 1439.765625 104.017188 Q 1439.765625 80.384375 1413.789062 70.814063 Q 1420.527344 67.591406 1431.953125 50.013281 L 1462.812500 2.845313 L 1450.410156 2.845313 L 1426.582031 40.247656 Q 1414.667969 58.997656 1408.027344 63.636328 Q 1401.386719 68.275000 1388.593750 68.275000 L 1370.136719 68.275000 L 1370.136719 2.845313 L 1359.589844 2.845313 Z M 1370.136719 130.482031 L 1370.136719 77.064063 L 1392.792969 77.064063 Q 1410.078125 77.064063 1419.208984 84.046484 Q 1428.339844 91.028906 1428.339844 103.821875 Q 1428.339844 116.419531 1419.062500 123.450781 Q 1409.785156 130.482031 1392.402344 130.482031 Z M 1657.812500 129.603125 L 1657.812500 118.079688 Q 1633.007812 131.263281 1609.179688 131.263281 Q 1583.789062 131.263281 1566.699219 113.978125 Q 1549.609375 96.692969 1549.609375 70.814063 Q 1549.609375 44.642188 1566.796875 27.747656 Q 1583.984375 10.853125 1610.644531 10.853125 Q 1632.910156 10.853125 1659.179688 24.817969 L 1659.179688 13.880469 Q 1634.960938 1.087500 1610.839844 1.087500 Q 1579.687500 1.087500 1558.935547 21.058203 Q 1538.183594 41.028906 1538.183594 70.814063 Q 1538.183594 100.794531 1559.375000 120.911719 Q 1580.566406 141.028906 1609.863281 141.028906 Q 1632.910156 141.028906 1657.812500 129.603125 Z M 1824.199219 139.271094 L 1824.199219 130.482031 L 1760.332031 130.482031 L 1760.332031 75.892188 L 1822.539062 75.892188 L 1822.539062 67.005469 L 1760.332031 67.005469 L 1760.332031 11.634375 L 1825.761719 11.634375 L 1825.761719 2.845313 L 1749.785156 2.845313 L 1749.785156 139.271094 Z" transform="scale(1.000000,1.000000) translate(272.000000,272.000000)" fill="#000000" opacity="1.000000"></path>
        <path d="M 509.777700 7.212800 L 410.983000 7.212800 L 412.396300 3.036100 L 412.914100 1.212800 L 509.777700 1.212800 Z M 98.791100 3.036100 L 100.204400 7.212800 L 1.409700 7.212800 L 1.409700 1.212800 L 98.273300 1.212800 Z" transform="scale(1.000000,1.000000) translate(930.000000,713.000000)" fill="#000000" opacity="1.000000"></path>
        <path d="M 689.777700 7.212800 L 509.701800 7.212800 L 509.777700 4.212800 L 509.701800 1.212800 L 689.777700 1.212800 Z M 181.409700 4.212800 L 181.485600 7.212800 L 1.409700 7.212800 L 1.409700 1.212800 L 181.485600 1.212800 Z" transform="scale(1.000000,1.000000) translate(840.000000,663.000000)" fill="#000000" opacity="1.000000"></path>
        <path d="M 509.777700 7.212800 L 412.914000 7.212800 L 412.396300 5.389500 L 410.983000 1.212800 L 509.777700 1.212800 Z M 98.791100 5.389500 L 98.273400 7.212800 L 1.409700 7.212800 L 1.409700 1.212800 L 100.204400 1.212800 Z" transform="scale(1.000000,1.000000) translate(930.000000,613.000000)" fill="#000000" opacity="1.000000"></path>
        <path d="M 125.593700 12.141600 L 118.554600 14.140500 L 111.204700 16.627400 L 104.021400 19.459700 L 97.014400 22.627500 L 90.193800 26.120800 L 83.569600 29.929700 L 77.151500 34.044200 L 70.949700 38.454400 L 64.974000 43.150400 L 59.234400 48.122200 L 53.740700 53.359900 L 48.503000 58.853500 L 43.531200 64.593100 L 38.835300 70.568800 L 34.425100 76.770700 L 30.310500 83.188700 L 26.501700 89.813000 L 23.008400 96.633500 L 19.840600 103.640500 L 17.008300 110.823900 L 14.521400 118.173800 L 12.389800 125.680200 L 10.623500 133.333300 L 9.232400 141.123000 L 8.226400 149.039400 L 7.615500 157.072700 L 7.409700 165.212800 L 7.615500 173.353000 L 8.226400 181.386200 L 9.232400 189.302700 L 10.623500 197.092400 L 12.389800 204.745500 L 14.521400 212.251900 L 17.008300 219.601800 L 19.840600 226.785200 L 23.008400 233.792100 L 26.501700 240.612700 L 30.310500 247.237000 L 34.425100 253.655000 L 38.835300 259.856800 L 43.531200 265.832500 L 48.503000 271.572200 L 53.740700 277.065800 L 59.234400 282.303500 L 64.974000 287.275300 L 70.949700 291.971300 L 77.151500 296.381500 L 83.569600 300.496000 L 90.193800 304.304900 L 97.014400 307.798200 L 104.021400 310.965900 L 111.204700 313.798300 L 118.554600 316.285200 L 125.593700 318.284100 L 125.593700 324.466100 L 124.561600 324.227900 L 116.770400 322.015400 L 109.141700 319.434200 L 101.685900 316.494400 L 94.413200 313.206500 L 87.333900 309.580700 L 80.458300 305.627400 L 73.796900 301.356800 L 67.359800 296.779300 L 61.157400 291.905200 L 55.200100 286.744800 L 49.498100 281.308400 L 44.061700 275.606400 L 38.901400 269.649100 L 34.027300 263.446700 L 29.449800 257.009700 L 25.179200 250.348200 L 21.225800 243.472700 L 17.600000 236.393400 L 14.312100 229.120700 L 11.372400 221.664800 L 8.791100 214.036100 L 6.578700 206.245000 L 4.745400 198.301600 L 3.301500 190.216400 L 2.257400 181.999700 L 1.623400 173.661700 L 1.409700 165.212800 L 1.623400 156.764000 L 2.257400 148.426000 L 3.301500 140.209200 L 4.745400 132.124000 L 6.578700 124.180700 L 8.791100 116.389500 L 11.372400 108.760900 L 14.312100 101.305000 L 17.600000 94.032300 L 21.225800 86.953000 L 25.179200 80.077500 L 29.449800 73.416000 L 34.027300 66.978900 L 38.901400 60.776600 L 44.061700 54.819200 L 49.498100 49.117200 L 55.200100 43.680900 L 61.157400 38.520500 L 67.359800 33.646400 L 73.796900 29.068900 L 80.458300 24.798300 L 87.333900 20.845000 L 94.413200 17.219200 L 101.685900 13.931200 L 109.141700 10.991500 L 116.770400 8.410200 L 124.561600 6.197800 L 125.593700 5.959600 Z M 206.625800 6.197800 L 214.417000 8.410200 L 222.045700 10.991500 L 229.501500 13.931200 L 236.774200 17.219200 L 243.853500 20.845000 L 250.729100 24.798300 L 257.390500 29.068900 L 263.827600 33.646400 L 270.030000 38.520500 L 275.987300 43.680900 L 281.689300 49.117200 L 287.125700 54.819200 L 292.286000 60.776600 L 297.160100 66.978900 L 301.737600 73.416000 L 306.008200 80.077500 L 309.961600 86.953000 L 313.587400 94.032300 L 316.875300 101.305000 L 319.815000 108.760900 L 322.396300 116.389500 L 324.608700 124.180700 L 326.442000 132.124000 L 327.885900 140.209200 L 328.930000 148.426000 L 329.564000 156.764000 L 329.777700 165.212800 L 329.564000 173.661700 L 328.930000 181.999700 L 327.885900 190.216400 L 326.442000 198.301600 L 324.608700 206.245000 L 322.396300 214.036100 L 319.815000 221.664800 L 316.875300 229.120700 L 313.587400 236.393400 L 309.961600 243.472700 L 306.008200 250.348200 L 301.737600 257.009700 L 297.160100 263.446700 L 292.286000 269.649100 L 287.125700 275.606400 L 281.689300 281.308400 L 275.987300 286.744800 L 270.030000 291.905200 L 263.827600 296.779300 L 257.390500 301.356800 L 250.729100 305.627400 L 243.853500 309.580700 L 236.774200 313.206500 L 229.501500 316.494400 L 222.045700 319.434200 L 214.417000 322.015400 L 206.625800 324.227900 L 205.593700 324.466100 L 205.593700 318.284100 L 212.632800 316.285200 L 219.982700 313.798300 L 227.166000 310.965900 L 234.173000 307.798200 L 240.993600 304.304900 L 247.617800 300.496000 L 254.035900 296.381500 L 260.237700 291.971300 L 266.213400 287.275300 L 271.953000 282.303500 L 277.446700 277.065800 L 282.684400 271.572200 L 287.656200 265.832500 L 292.352100 259.856800 L 296.762300 253.655000 L 300.876900 247.237000 L 304.685700 240.612700 L 308.179000 233.792100 L 311.346800 226.785200 L 314.179100 219.601800 L 316.666000 212.251900 L 318.797600 204.745500 L 320.563900 197.092400 L 321.955000 189.302700 L 322.961000 181.386200 L 323.571900 173.353000 L 323.777700 165.212800 L 323.571900 157.072700 L 322.961000 149.039400 L 321.955000 141.123000 L 320.563900 133.333300 L 318.797600 125.680200 L 316.666000 118.173800 L 314.179100 110.823900 L 311.346800 103.640500 L 308.179000 96.633500 L 304.685700 89.813000 L 300.876900 83.188700 L 296.762300 76.770700 L 292.352100 70.568800 L 287.656200 64.593100 L 282.684400 58.853500 L 277.446700 53.359900 L 271.953000 48.122200 L 266.213400 43.150400 L 260.237700 38.454400 L 254.035900 34.044200 L 247.617800 29.929700 L 240.993600 26.120800 L 234.173000 22.627500 L 227.166000 19.459700 L 219.982700 16.627400 L 212.632800 14.140500 L 205.593700 12.141600 L 205.593700 5.959600 Z" transform="scale(1.000000,1.000000) translate(1020.000000,502.000000)" fill="#000000" opacity="1.000000"></path>
        <path d="M 2.269531 122.628906 L 2.269531 132.394531 Q 14.183594 141.183594 30.980469 141.183594 Q 48.851562 141.183594 60.228516 131.515625 Q 71.605469 121.847656 71.605469 106.808594 Q 71.605469 96.066406 65.257812 87.667969 Q 58.910156 79.269531 46.800781 75.558594 L 46.800781 75.167969 Q 73.265625 66.281250 73.265625 40.402344 Q 73.265625 22.335938 61.205078 11.789062 Q 49.144531 1.242188 32.445312 1.242188 Q 15.453125 1.242188 1.000000 7.980469 L 1.000000 17.355469 Q 15.062500 10.812500 31.273438 10.812500 Q 45.433594 10.812500 54.222656 18.820312 Q 63.011719 26.828125 63.011719 39.816406 Q 63.011719 53.781250 53.685547 62.033203 Q 44.359375 70.285156 27.855469 69.992188 L 27.855469 79.562500 Q 42.894531 79.562500 52.171875 87.326172 Q 61.449219 95.089844 61.449219 106.027344 Q 61.449219 116.867188 52.513672 124.240234 Q 43.578125 131.613281 30.199219 131.613281 Q 15.550781 131.613281 2.269531 122.628906 Z M 216.820312 129.757812 L 216.820312 118.234375 Q 192.015625 131.417969 168.187500 131.417969 Q 142.796875 131.417969 125.707031 114.132812 Q 108.617188 96.847656 108.617188 70.968750 Q 108.617188 44.796875 125.804688 27.902344 Q 142.992188 11.007812 169.652344 11.007812 Q 191.917969 11.007812 218.187500 24.972656 L 218.187500 14.035156 Q 193.968750 1.242188 169.847656 1.242188 Q 138.695312 1.242188 117.943359 21.212891 Q 97.191406 41.183594 97.191406 70.968750 Q 97.191406 100.949219 118.382812 121.066406 Q 139.574219 141.183594 168.871094 141.183594 Q 191.917969 141.183594 216.820312 129.757812 Z" transform="scale(1.000000,1.000000) translate(1076.000000,596.000000)" fill="#fffefe" opacity="1.000000"></path>
    </g>
</svg>